<svg width="1200" height="630" viewBox="0 0 1200 630" fill="none" xmlns="http://www.w3.org/2000/svg">
  <rect width="1200" height="630" fill="#09111F"/>
  <rect x="40" y="40" width="1120" height="550" rx="28" fill="url(#bgPanel)" stroke="rgba(255,255,255,0.08)"/>
  <circle cx="174" cy="126" r="10" fill="#69D2C6"/>
  <circle cx="206" cy="126" r="10" fill="#FFB26B"/>
  <circle cx="238" cy="126" r="10" fill="#FF8743"/>
  <text x="110" y="210" fill="#F4F7FB" font-family="Outfit, Inter, sans-serif" font-size="78" font-weight="800">MarketPulse</text>
  <text x="110" y="272" fill="#D8E1EE" font-family="Inter, sans-serif" font-size="28" font-weight="500">Real-time financial dashboard built as a portfolio project</text>
  <text x="110" y="318" fill="#93A5BC" font-family="Inter, sans-serif" font-size="22">Currencies, crypto, commodities, portfolio tracking and polished front-end execution.</text>
  <rect x="110" y="380" width="192" height="54" rx="27" fill="#162742" stroke="#2A446E"/>
  <text x="144" y="415" fill="#F4F7FB" font-family="Inter, sans-serif" font-size="22" font-weight="600">React 18</text>
  <rect x="322" y="380" width="160" height="54" rx="27" fill="#162742" stroke="#2A446E"/>
  <text x="372" y="415" fill="#F4F7FB" font-family="Inter, sans-serif" font-size="22" font-weight="600">Vite</text>
  <rect x="502" y="380" width="192" height="54" rx="27" fill="#162742" stroke="#2A446E"/>
  <text x="542" y="415" fill="#F4F7FB" font-family="Inter, sans-serif" font-size="22" font-weight="600">Chart.js</text>
  <rect x="714" y="380" width="162" height="54" rx="27" fill="#162742" stroke="#2A446E"/>
  <text x="760" y="415" fill="#F4F7FB" font-family="Inter, sans-serif" font-size="22" font-weight="600">PWA</text>
  <rect x="792" y="128" width="254" height="128" rx="28" fill="url(#cardWarm)" stroke="rgba(255,255,255,0.08)"/>
  <text x="826" y="172" fill="#93A5BC" font-family="Inter, sans-serif" font-size="18" font-weight="600">Tracked assets</text>
  <text x="826" y="228" fill="#F4F7FB" font-family="Outfit, Inter, sans-serif" font-size="58" font-weight="800">12+</text>
  <rect x="776" y="286" width="294" height="164" rx="28" fill="#0F1B30" stroke="rgba(255,255,255,0.08)"/>
  <path d="M816 392H872L910 314L958 432L1002 360H1030" stroke="url(#chart)" stroke-width="16" stroke-linecap="round" stroke-linejoin="round"/>
  <circle cx="910" cy="314" r="9" fill="#FFDFBF"/>
  <circle cx="958" cy="432" r="9" fill="#FFDFBF"/>
  <text x="826" y="336" fill="#93A5BC" font-family="Inter, sans-serif" font-size="18" font-weight="600">Live market snapshot</text>
  <text x="110" y="520" fill="#D8E1EE" font-family="Inter, sans-serif" font-size="22">Built by Rafael Molina</text>
  <defs>
    <linearGradient id="bgPanel" x1="94" y1="68" x2="1115" y2="598" gradientUnits="userSpaceOnUse">
      <stop stop-color="#0F1B30"/>
      <stop offset="1" stop-color="#09111F"/>
    </linearGradient>
    <linearGradient id="cardWarm" x1="792" y1="128" x2="1046" y2="256" gradientUnits="userSpaceOnUse">
      <stop stop-color="#1D3558"/>
      <stop offset="1" stop-color="#132239"/>
    </linearGradient>
    <linearGradient id="chart" x1="816" y1="314" x2="1030" y2="432" gradientUnits="userSpaceOnUse">
      <stop stop-color="#69D2C6"/>
      <stop offset="0.55" stop-color="#FFB26B"/>
      <stop offset="1" stop-color="#FF8743"/>
    </linearGradient>
  </defs>
</svg>
